<svg aria-hidden="true" style="position: absolute; width: 0; height: 0; overflow: hidden;" version="1.1" xmlns="http://www.w3.org/2000/svg" xmlns:xlink="http://www.w3.org/1999/xlink">
<defs>
<symbol id="icon-car" viewBox="0 0 24 24">
<path fill="#29abe2" style="fill: var(--color1, #29abe2)" d="M3.375 11.117v-0.805c0-1.45 1.175-2.625 2.625-2.625v0h6.825c0 0 0 0 0 0 0.569 0 1.079 0.253 1.423 0.653l0.002 0.002 2.047 2.329z"></path>
<path fill="#000" style="fill: var(--color2, #000)" d="M3.75 11.117h-0.75v-0.805c0.002-1.656 1.344-2.998 3-3h6.825c0.683 0 1.295 0.304 1.707 0.785l0.003 0.003 2.044 2.325-0.563 0.495-2.047-2.329c-0.277-0.324-0.687-0.528-1.143-0.528h-6.826c-1.242 0.001-2.249 1.008-2.25 2.25v0z"></path>
<path fill="#29abe2" style="fill: var(--color1, #29abe2)" d="M5.25 14.438c-1.036 0-1.875-0.839-1.875-1.875v0-1.875h16.207c0.99 0 1.793 0.803 1.793 1.793v0 0.164c-0 0.99-0.803 1.793-1.793 1.793h-14.332z"></path>
<path fill="#000" style="fill: var(--color2, #000)" d="M19.582 14.813h-14.332c-1.242-0.002-2.248-1.008-2.25-2.25v-2.25h16.582c1.197 0.002 2.166 0.971 2.168 2.168v0.164c-0.002 1.197-0.971 2.167-2.168 2.168h-0zM3.75 11.063v1.5c0 0.828 0.672 1.5 1.5 1.5v0h14.332c0.783-0.001 1.417-0.635 1.418-1.418v-0.164c-0.001-0.783-0.635-1.417-1.418-1.418h-0z"></path>
<path fill="#29abe2" style="fill: var(--color1, #29abe2)" d="M18.93 14.072c0 0.823-0.667 1.491-1.491 1.491s-1.491-0.667-1.491-1.491c0-0.823 0.667-1.491 1.491-1.491s1.491 0.667 1.491 1.491z"></path>
<path fill="#000" style="fill: var(--color2, #000)" d="M17.439 12.581c0.823 0 1.491 0.667 1.491 1.491s-0.667 1.491-1.491 1.491c-0.823 0-1.491-0.667-1.491-1.491v0c0-0.823 0.667-1.491 1.491-1.491v0zM17.439 11.831c-0 0-0 0-0 0-1.237 0-2.241 1.003-2.241 2.241s1.003 2.241 2.241 2.241c1.237 0 2.241-1.003 2.241-2.241v0c-0.002-1.237-1.004-2.239-2.24-2.241h-0z"></path>
<path fill="#29abe2" style="fill: var(--color1, #29abe2)" d="M8.43 14.072c0 0.823-0.667 1.491-1.491 1.491s-1.491-0.667-1.491-1.491c0-0.823 0.667-1.491 1.491-1.491s1.491 0.667 1.491 1.491z"></path>
<path fill="#000" style="fill: var(--color2, #000)" d="M6.939 12.581c0.823 0 1.491 0.667 1.491 1.491s-0.667 1.491-1.491 1.491c-0.823 0-1.491-0.667-1.491-1.491v0c0-0.823 0.667-1.491 1.491-1.491v0zM6.939 11.831c-0 0-0 0-0 0-1.237 0-2.241 1.003-2.241 2.241s1.003 2.241 2.241 2.241c1.237 0 2.241-1.003 2.241-2.241v0c-0.002-1.237-1.004-2.239-2.24-2.241h-0z"></path>
<path fill="#000" style="fill: var(--color2, #000)" d="M13.125 12.563h-1.125c-0.207 0-0.375-0.168-0.375-0.375s0.168-0.375 0.375-0.375v0h1.125c0.207 0 0.375 0.168 0.375 0.375s-0.168 0.375-0.375 0.375v0z"></path>
<path fill="#000" style="fill: var(--color2, #000)" d="M23.625 16.688h-23.25c-0.207 0-0.375-0.168-0.375-0.375s0.168-0.375 0.375-0.375v0h23.25c0.207 0 0.375 0.168 0.375 0.375s-0.168 0.375-0.375 0.375v0z"></path>
</symbol>
<symbol id="icon-arrow-right" viewBox="0 0 32 32">
<path d="M19.414 27.414l10-10c0.781-0.781 0.781-2.047 0-2.828l-10-10c-0.781-0.781-2.047-0.781-2.828 0s-0.781 2.047 0 2.828l6.586 6.586h-19.172c-1.105 0-2 0.895-2 2s0.895 2 2 2h19.172l-6.586 6.586c-0.39 0.39-0.586 0.902-0.586 1.414s0.195 1.024 0.586 1.414c0.781 0.781 2.047 0.781 2.828 0z"></path>
</symbol>
<symbol id="icon-x" viewBox="0 0 24 24">
<path stroke-linejoin="round" stroke-linecap="round" stroke-miterlimit="4" stroke-width="1.8" d="M18 6l-12 12"></path>
<path stroke-linejoin="round" stroke-linecap="round" stroke-miterlimit="4" stroke-width="1.8" d="M6 6l12 12"></path>
</symbol>
<symbol id="icon-heart" viewBox="0 0 24 24">
<path fill="none" stroke="#fff" style="stroke: var(--color1, #fff)" stroke-linejoin="round" stroke-linecap="round" stroke-miterlimit="4" stroke-width="2" d="M20.84 4.61c-0.511-0.511-1.117-0.916-1.785-1.193s-1.383-0.419-2.105-0.419c-0.723 0-1.438 0.142-2.105 0.419s-1.274 0.682-1.785 1.193l-1.060 1.060-1.060-1.060c-1.032-1.032-2.431-1.611-3.89-1.611s-2.858 0.58-3.89 1.611c-1.032 1.032-1.611 2.431-1.611 3.89s0.58 2.858 1.611 3.89l8.84 8.84 8.84-8.84c0.511-0.511 0.916-1.117 1.193-1.785s0.419-1.383 0.419-2.105-0.142-1.438-0.419-2.105c-0.277-0.667-0.682-1.274-1.193-1.785z"></path>
</symbol>
<symbol id="icon-heart-active" viewBox="0 0 24 24">
<path stroke-linejoin="round" stroke-linecap="round" stroke-miterlimit="4" stroke-width="1.3333" d="M20.84 4.61c-0.511-0.511-1.117-0.916-1.785-1.193s-1.383-0.419-2.105-0.419c-0.723 0-1.438 0.142-2.105 0.419s-1.274 0.682-1.785 1.193l-1.060 1.060-1.060-1.060c-1.032-1.032-2.431-1.611-3.89-1.611s-2.858 0.58-3.89 1.611c-1.032 1.032-1.611 2.431-1.611 3.89s0.58 2.858 1.611 3.89l8.84 8.84 8.84-8.84c0.511-0.511 0.916-1.117 1.193-1.785s0.419-1.383 0.419-2.105c0-0.722-0.142-1.438-0.419-2.105s-0.682-1.274-1.193-1.785z"></path>
</symbol>
</defs>
</svg>
